<svg xmlns="http://www.w3.org/2000/svg" viewBox="0 0 600 600" fill="none">
  <defs>
    <linearGradient id="bg" x1="80" y1="60" x2="520" y2="560" gradientUnits="userSpaceOnUse">
      <stop stop-color="#0F3E38"/>
      <stop offset="1" stop-color="#08101D"/>
    </linearGradient>
    <linearGradient id="pole" x1="250" y1="110" x2="350" y2="490" gradientUnits="userSpaceOnUse">
      <stop stop-color="#EAF6FF"/>
      <stop offset="1" stop-color="#A8D5FF"/>
    </linearGradient>
  </defs>
  <rect width="600" height="600" rx="44" fill="url(#bg)"/>
  <circle cx="120" cy="130" r="96" fill="#22C55E" fill-opacity=".12"/>
  <circle cx="490" cy="470" r="140" fill="#0EA5A4" fill-opacity=".12"/>
  <rect x="82" y="82" width="436" height="436" rx="34" stroke="rgba(255,255,255,.20)" stroke-width="4"/>
  <rect x="252" y="122" width="96" height="356" rx="48" fill="url(#pole)"/>
  <path d="M252 160c76 24 76 24 96 48v58c-76-24-76-24-96-48v-58Z" fill="#DC2626" fill-opacity=".88"/>
  <path d="M348 248c-76 24-76 24-96 48v58c76-24 76-24 96-48v-58Z" fill="#2563EB" fill-opacity=".9"/>
  <path d="M252 336c76 24 76 24 96 48v56c-76-24-76-24-96-48v-56Z" fill="#DC2626" fill-opacity=".88"/>
  <rect x="230" y="98" width="140" height="30" rx="15" fill="#F4C76B"/>
  <rect x="230" y="472" width="140" height="30" rx="15" fill="#F4C76B"/>
  <path d="M154 396c44-21 79-57 102-109" stroke="#9EE6D7" stroke-width="16" stroke-linecap="round"/>
  <path d="M448 204c-31 17-56 41-76 73" stroke="#9EE6D7" stroke-width="16" stroke-linecap="round"/>
</svg>